<svg width="160" height="53" viewBox="0 0 160 53" fill="none" xmlns="http://www.w3.org/2000/svg">
<g clip-path="url(#clip0_37_137)">
<path d="M147.028 0H13.2662C12.7782 0 12.2956 0 11.8103 0.00265C11.4034 0.0053 10.9992 0.01325 10.5883 0.019875C9.6955 0.0295903 8.80472 0.107106 7.92372 0.25175C7.04446 0.400424 6.19276 0.680504 5.39739 1.08253C4.60188 1.48844 3.87507 2.016 3.24337 2.64603C2.60947 3.27318 2.08104 3.99796 1.67838 4.79253C1.27427 5.586 0.994039 6.43628 0.847354 7.314C0.699402 8.19077 0.619828 9.07764 0.609348 9.96665C0.596051 10.3734 0.596051 10.7815 0.589403 11.187V41.817C0.596051 42.2278 0.597381 42.6253 0.609348 43.0373C0.620263 43.9264 0.700281 44.8132 0.848684 45.69C0.994423 46.5686 1.27423 47.4198 1.67838 48.2141C2.08143 49.0056 2.61037 49.7269 3.2447 50.35C3.87329 50.9821 4.59966 51.5096 5.39606 51.9122C6.19189 52.315 7.04396 52.5964 7.92372 52.7469C8.8048 52.8913 9.69549 52.9697 10.5883 52.9815C11.0005 52.9907 11.4034 52.996 11.8103 52.996C12.2969 52.9987 12.7782 52.9987 13.2662 52.9987H147.028C147.507 52.9987 147.991 52.9987 148.47 52.996C148.874 52.996 149.29 52.9907 149.696 52.9828C150.587 52.9712 151.476 52.8923 152.355 52.7469C153.237 52.5953 154.092 52.314 154.892 51.9122C155.688 51.5094 156.414 50.982 157.042 50.35C157.675 49.7237 158.205 49.0021 158.614 48.2115C159.015 47.4167 159.293 46.5655 159.437 45.6873C159.585 44.8104 159.667 43.9238 159.683 43.0347C159.688 42.6239 159.688 42.2264 159.688 41.8144C159.699 41.3321 159.699 40.8537 159.699 40.3648V12.6352C159.699 12.1503 159.699 11.668 159.688 11.1883C159.688 10.7829 159.688 10.3748 159.683 9.9693C159.667 9.07978 159.585 8.19266 159.437 7.31533C159.292 6.43805 159.014 5.58784 158.612 4.79385C157.792 3.20003 156.491 1.90254 154.892 1.08385C154.092 0.682736 153.237 0.402729 152.355 0.253075C151.476 0.107375 150.587 0.0294107 149.696 0.019875C149.29 0.01325 148.874 0.0053 148.47 0.00265C147.991 0 147.506 0 147.028 0V0Z" fill="#A6A6A6"/>
<path d="M11.8164 51.8404C11.4109 51.8404 11.016 51.8351 10.6144 51.8272C9.78135 51.816 8.95026 51.7434 8.12798 51.6099C7.36189 51.4782 6.61977 51.2335 5.92609 50.8838C5.23851 50.5372 4.61134 50.0826 4.06858 49.5376C3.51819 48.9984 3.06006 48.3732 2.71234 47.6866C2.36007 46.9958 2.11613 46.2554 1.98901 45.491C1.85245 44.6697 1.77867 43.8392 1.76829 43.0067C1.75899 42.7284 1.74835 41.7969 1.74835 41.7969V11.1894C1.74835 11.1894 1.76032 10.2725 1.76829 10.0036C1.7782 9.17241 1.85154 8.34321 1.98768 7.52315C2.11481 6.75667 2.35874 6.01405 2.71101 5.321C3.05766 4.63505 3.51341 4.00952 4.0606 3.46865C4.60702 2.92246 5.23606 2.46507 5.92476 2.11318C6.61702 1.76456 7.35793 1.52158 8.12266 1.39238C8.94752 1.25797 9.78132 1.18534 10.6171 1.17508L11.8164 1.15918H148.462L149.676 1.1764C150.504 1.18598 151.33 1.25773 152.147 1.39105C152.92 1.52186 153.668 1.76657 154.369 2.11715C155.749 2.82587 156.872 3.94708 157.58 5.32366C157.926 6.01205 158.166 6.74869 158.291 7.50858C158.429 8.33528 158.507 9.17093 158.523 10.0089C158.527 10.3838 158.527 10.788 158.527 11.1881C158.537 11.685 158.537 12.158 158.537 12.635V40.3659C158.537 40.8469 158.537 41.3173 158.527 41.7903C158.527 42.2209 158.527 42.6158 158.521 43.0226C158.506 43.8454 158.431 44.666 158.295 45.4778C158.171 46.2477 157.929 46.994 157.577 47.6905C157.227 48.3697 156.771 48.9894 156.226 49.527C155.683 50.0751 155.054 50.5323 154.365 50.8811C153.666 51.2337 152.919 51.4793 152.147 51.6099C151.325 51.7436 150.494 51.8158 149.662 51.8259C149.272 51.8351 148.864 51.8404 148.469 51.8404L147.028 51.8431L11.8164 51.8404Z" fill="black"/>
<path d="M33.5215 26.8977C33.536 25.7921 33.8308 24.7081 34.3785 23.7465C34.9262 22.7848 35.709 21.9769 36.6542 21.3976C36.0537 20.5429 35.2615 19.8395 34.3406 19.3432C33.4197 18.8468 32.3953 18.5712 31.3489 18.5383C29.1151 18.3051 26.9504 19.8699 25.8122 19.8699C24.6528 19.8699 22.9003 18.5608 21.0149 18.6005C19.7947 18.6398 18.6055 18.9934 17.5632 19.6268C16.5209 20.2603 15.661 21.152 15.0674 22.2151C12.4959 26.6513 14.4145 33.1716 16.877 36.7583C18.1096 38.514 19.5496 40.475 21.4351 40.4061C23.2793 40.3292 23.968 39.2334 26.1952 39.2334C28.3997 39.2334 29.0459 40.4061 30.9686 40.3624C32.9484 40.3292 34.1943 38.5974 35.383 36.8246C36.2692 35.5737 36.9513 34.191 37.4041 32.7277C36.254 32.2432 35.2725 31.432 34.582 30.3952C33.8916 29.3584 33.5227 28.142 33.5215 26.8977ZM29.8889 16.1784C30.9681 14.888 31.4999 13.2291 31.3715 11.5542C29.7227 11.7267 28.1996 12.512 27.106 13.7537C26.5714 14.3598 26.1619 15.065 25.9009 15.8289C25.6399 16.5928 25.5325 17.4004 25.5849 18.2057C26.4094 18.2142 27.2252 18.0361 27.9707 17.685C28.7162 17.3338 29.3721 16.8187 29.8889 16.1784Z" fill="white"/>
<path d="M56.8342 35.9606H50.5423L49.0305 40.4073H46.3646L52.3267 23.9535H55.0963L61.0571 40.4073H58.346L56.8342 35.9606ZM51.1925 33.9069H56.1813L53.7215 26.6909H53.6537L51.1925 33.9069ZM73.9307 34.4104C73.9307 38.1376 71.9283 40.5319 68.906 40.5319C68.1409 40.5716 67.38 40.396 66.7103 40.0251C66.0406 39.6542 65.4892 39.1029 65.1192 38.4344H65.062V44.3757H62.5889V28.4108H64.9822V30.4062H65.0261C65.4131 29.7406 65.974 29.192 66.649 28.8187C67.324 28.4454 68.0879 28.2614 68.8595 28.2862C71.915 28.2862 73.9294 30.6924 73.9294 34.4104H73.9307ZM71.3911 34.4104C71.3911 31.9816 70.1306 30.385 68.2093 30.385C66.3212 30.385 65.0514 32.0148 65.0514 34.4104C65.0514 36.8272 66.3212 38.4463 68.2093 38.4463C70.1306 38.4463 71.3911 36.8603 71.3911 34.4104ZM87.1806 34.4104C87.1806 38.1376 85.1782 40.5319 82.1559 40.5319C81.3908 40.5716 80.6299 40.396 79.9602 40.0251C79.2905 39.6542 78.7391 39.1029 78.3691 38.4344H78.3119V44.3757H75.8401V28.4108H78.2321V30.4062H78.2773C78.6643 29.7406 79.2252 29.192 79.9002 28.8187C80.5752 28.4454 81.3391 28.2614 82.1107 28.2862C85.1662 28.2862 87.1806 30.6924 87.1806 34.4104ZM84.641 34.4104C84.641 31.9816 83.3805 30.385 81.4591 30.385C79.5711 30.385 78.3012 32.0148 78.3012 34.4104C78.3012 36.8272 79.5711 38.4463 81.4591 38.4463C83.3805 38.4463 84.6397 36.8603 84.6397 34.4104H84.641ZM95.9363 35.8228C96.1198 37.4552 97.71 38.5258 99.8853 38.5258C101.968 38.5258 103.466 37.4552 103.466 35.9831C103.466 34.7058 102.562 33.9426 100.421 33.4179L98.2818 32.9038C95.2502 32.1751 93.8421 30.7613 93.8421 28.4677C93.8421 25.6296 96.3246 23.6792 99.8508 23.6792C103.34 23.6792 105.732 25.6296 105.812 28.4677H103.317C103.168 26.8261 101.807 25.835 99.8149 25.835C97.8231 25.835 96.4628 26.838 96.4628 28.2968C96.4628 29.4602 97.3324 30.1452 99.4612 30.6686L101.28 31.1138C104.668 31.9127 106.075 33.2682 106.075 35.6757C106.075 38.7537 103.615 40.6816 99.7019 40.6816C96.04 40.6816 93.5669 38.8001 93.4073 35.8228H95.9363ZM111.408 25.5726V28.4108H113.698V30.3612H111.408V36.9742C111.408 38.0024 111.867 38.4808 112.873 38.4808C113.145 38.476 113.416 38.457 113.686 38.4238V40.3623C113.233 40.4465 112.774 40.4847 112.314 40.4762C109.876 40.4762 108.926 39.5633 108.926 37.2366V30.3612H107.176V28.4108H108.926V25.5726H111.408ZM115.023 34.4104C115.023 30.6354 117.254 28.2637 120.733 28.2637C124.223 28.2637 126.444 30.6354 126.444 34.4104C126.444 38.1946 124.235 40.5557 120.733 40.5557C117.232 40.5557 115.023 38.1946 115.023 34.4104ZM123.925 34.4104C123.925 31.8213 122.735 30.2923 120.733 30.2923C118.73 30.2923 117.542 31.8319 117.542 34.4104C117.542 37.01 118.73 38.5258 120.733 38.5258C122.735 38.5258 123.925 37.01 123.925 34.4104ZM128.481 28.4108H130.838V30.4526H130.895C131.055 29.8153 131.43 29.2522 131.957 28.8577C132.484 28.4633 133.131 28.2615 133.79 28.2862C134.075 28.2851 134.359 28.3157 134.637 28.3776V30.6805C134.277 30.5712 133.902 30.521 133.527 30.5321C133.168 30.5176 132.81 30.5806 132.477 30.7169C132.145 30.8532 131.847 31.0596 131.602 31.3218C131.357 31.584 131.172 31.8958 131.06 32.2359C130.948 32.576 130.911 32.9363 130.951 33.2921V40.4073H128.481V28.4108ZM146.029 36.8841C145.697 39.0611 143.569 40.5557 140.846 40.5557C137.344 40.5557 135.17 38.2184 135.17 34.4673C135.17 30.7043 137.356 28.2637 140.741 28.2637C144.073 28.2637 146.166 30.5427 146.166 34.1811V35.0252H137.664V35.1736C137.625 35.6151 137.681 36.0598 137.827 36.4783C137.974 36.8967 138.208 37.2793 138.515 37.6006C138.821 37.922 139.192 38.1747 139.604 38.3419C140.016 38.5092 140.459 38.5873 140.904 38.5709C141.487 38.6253 142.073 38.4905 142.574 38.1866C143.074 37.8827 143.463 37.4259 143.682 36.8841H146.029ZM137.676 33.304H143.694C143.717 32.9071 143.656 32.5099 143.517 32.1373C143.378 31.7647 143.163 31.4248 142.886 31.1389C142.609 30.853 142.275 30.6272 141.907 30.4758C141.538 30.3244 141.141 30.2507 140.743 30.2591C140.34 30.2567 139.941 30.3337 139.569 30.4857C139.196 30.6377 138.858 30.8618 138.573 31.1448C138.288 31.4279 138.062 31.7645 137.908 32.1351C137.754 32.5057 137.675 32.903 137.676 33.304Z" fill="white"/>
<path d="M50.8827 11.5687C51.4007 11.5317 51.9206 11.6097 52.4048 11.7971C52.889 11.9845 53.3254 12.2767 53.6826 12.6525C54.0397 13.0283 54.3087 13.4784 54.4702 13.9704C54.6317 14.4623 54.6816 14.9839 54.6163 15.4974C54.6163 18.0228 53.2468 19.475 50.8827 19.475H48.0173V11.5674L50.8827 11.5687ZM49.2499 18.3567H50.7457C51.1158 18.3786 51.4861 18.318 51.8297 18.1793C52.1734 18.0406 52.4816 17.8273 52.7322 17.555C52.9827 17.2826 53.1691 16.958 53.2779 16.6049C53.3867 16.2517 53.4151 15.8788 53.3611 15.5133C53.4113 15.1492 53.38 14.7786 53.2696 14.4279C53.1591 14.0773 52.9723 13.7553 52.7223 13.4851C52.4724 13.2149 52.1655 13.0031 51.8238 12.8649C51.4821 12.7267 51.1139 12.6655 50.7457 12.6857H49.2499V18.3567ZM56.0071 16.4885C55.9709 16.0971 56.017 15.7025 56.1425 15.33C56.268 14.9574 56.4701 14.615 56.7358 14.3246C57.0016 14.0342 57.3252 13.8023 57.686 13.6436C58.0468 13.4849 58.4369 13.4029 58.8313 13.4029C59.2257 13.4029 59.6157 13.4849 59.9765 13.6436C60.3373 13.8023 60.6609 14.0342 60.9267 14.3246C61.1925 14.615 61.3946 14.9574 61.52 15.33C61.6455 15.7025 61.6916 16.0971 61.6554 16.4885C61.6947 16.8815 61.6509 17.2783 61.5269 17.6534C61.4029 18.0285 61.2014 18.3736 60.9354 18.6664C60.6694 18.9591 60.3448 19.1931 59.9825 19.3533C59.6202 19.5134 59.2283 19.5962 58.8319 19.5962C58.4356 19.5962 58.0437 19.5134 57.6814 19.3533C57.3191 19.1931 56.9945 18.9591 56.7285 18.6664C56.4625 18.3736 56.261 18.0285 56.137 17.6534C56.013 17.2783 55.9692 16.8815 56.0084 16.4885H56.0071ZM60.4401 16.4885C60.4401 15.1953 59.8564 14.4387 58.8339 14.4387C57.8061 14.4387 57.229 15.1953 57.229 16.4885C57.229 17.7923 57.8061 18.5422 58.8339 18.5422C59.8577 18.5422 60.4401 17.787 60.4401 16.4885ZM69.1613 19.475H67.9353L66.6988 15.08H66.6057L65.3731 19.475H64.1591L62.5077 13.5085H63.7071L64.7788 18.0612H64.8678L66.0991 13.5085H67.232L68.4632 18.0612H68.5563L69.624 13.5085H70.806L69.1613 19.475ZM72.1942 13.5085H73.331V14.4559H73.4188C73.5686 14.1155 73.8214 13.8302 74.1417 13.6397C74.462 13.4492 74.834 13.3631 75.2058 13.3933C75.4972 13.3715 75.7897 13.4153 76.0618 13.5214C76.3339 13.6275 76.5785 13.7933 76.7776 14.0064C76.9767 14.2196 77.1251 14.4746 77.2118 14.7526C77.2986 15.0307 77.3214 15.3246 77.2787 15.6126V19.475H76.0967V15.9081C76.0967 14.9488 75.6792 14.4718 74.8043 14.4718C74.6065 14.4627 74.4091 14.4963 74.2256 14.5703C74.0421 14.6443 73.8768 14.7569 73.741 14.9005C73.6053 15.0441 73.5023 15.2152 73.4391 15.4022C73.3759 15.5891 73.354 15.7875 73.3749 15.9836V19.475H72.1942V13.5085ZM79.1615 11.1792H80.3422V19.4737H79.1615V11.1792ZM81.9857 16.4885C81.9484 16.0966 81.9937 15.7013 82.1187 15.3279C82.2437 14.9545 82.4455 14.6113 82.7113 14.3201C82.9771 14.029 83.301 13.7964 83.6623 13.6372C84.0235 13.478 84.4142 13.3958 84.8092 13.3958C85.2042 13.3958 85.5948 13.478 85.956 13.6372C86.3173 13.7964 86.6412 14.029 86.907 14.3201C87.1728 14.6113 87.3747 14.9545 87.4996 15.3279C87.6246 15.7013 87.6699 16.0966 87.6327 16.4885C87.6719 16.8815 87.6281 17.2783 87.5041 17.6534C87.3801 18.0285 87.1786 18.3736 86.9126 18.6664C86.6466 18.9591 86.322 19.1931 85.9597 19.3533C85.5974 19.5134 85.2055 19.5962 84.8092 19.5962C84.4128 19.5962 84.0209 19.5134 83.6586 19.3533C83.2963 19.1931 82.9717 18.9591 82.7057 18.6664C82.4397 18.3736 82.2382 18.0285 82.1142 17.6534C81.9902 17.2783 81.9464 16.8815 81.9857 16.4885ZM86.4174 16.4885C86.4174 15.1953 85.8337 14.4387 84.8112 14.4387C83.7833 14.4387 83.2063 15.1953 83.2063 16.4885C83.2063 17.7923 83.7833 18.5422 84.8112 18.5422C85.835 18.5422 86.4174 17.787 86.4174 16.4885ZM88.8759 17.787C88.8759 16.7137 89.679 16.0936 91.1044 16.0062L92.7265 15.9134V15.398C92.7265 14.7686 92.3077 14.4122 91.5006 14.4122C90.8398 14.4122 90.3837 14.6533 90.2521 15.0747H89.1086C89.2282 14.0505 90.1962 13.3919 91.5551 13.3919C93.0549 13.3919 93.9019 14.1379 93.9019 15.398V19.475H92.7651V18.6363H92.672C92.4822 18.9372 92.2156 19.1824 91.8996 19.347C91.5835 19.5116 91.2292 19.5896 90.873 19.5731C90.6216 19.5992 90.3675 19.5725 90.1271 19.4947C89.8867 19.4169 89.6653 19.2898 89.4772 19.1215C89.2892 18.9532 89.1386 18.7475 89.0353 18.5176C88.9319 18.2878 88.8781 18.0389 88.8772 17.787H88.8759ZM92.7252 17.2782V16.7786L91.2626 16.8714C90.4382 16.927 90.0659 17.2066 90.0659 17.7326C90.0659 18.2693 90.5326 18.5806 91.1748 18.5806C91.363 18.5996 91.5531 18.5806 91.7338 18.5249C91.9145 18.4692 92.0821 18.3779 92.2267 18.2564C92.3713 18.135 92.4899 17.9858 92.5756 17.8177C92.6612 17.6497 92.7121 17.4662 92.7252 17.2782ZM95.455 16.4885C95.455 14.603 96.4283 13.4092 97.9414 13.4092C98.3154 13.3922 98.6865 13.4816 99.0114 13.667C99.3363 13.8523 99.6016 14.126 99.7763 14.4559H99.8654V11.1792H101.046V19.4737H99.9146V18.5329H99.8215C99.633 18.8609 99.358 19.1312 99.0264 19.3145C98.6947 19.4979 98.3191 19.5873 97.9401 19.5731C96.4176 19.5731 95.455 18.3792 95.455 16.4885ZM96.6756 16.4885C96.6756 17.7538 97.2739 18.5157 98.2751 18.5157C99.2724 18.5157 99.8867 17.7432 99.8867 16.4938C99.8867 15.2509 99.2644 14.4665 98.2751 14.4665C97.2806 14.4665 96.6756 15.235 96.6756 16.4885ZM105.935 16.4885C105.898 16.0966 105.943 15.7013 106.068 15.3279C106.193 14.9545 106.395 14.6113 106.661 14.3201C106.927 14.029 107.251 13.7964 107.612 13.6372C107.973 13.478 108.364 13.3958 108.759 13.3958C109.154 13.3958 109.544 13.478 109.906 13.6372C110.267 13.7964 110.591 14.029 110.857 14.3201C111.122 14.6113 111.324 14.9545 111.449 15.3279C111.574 15.7013 111.619 16.0966 111.582 16.4885C111.621 16.8815 111.578 17.2783 111.454 17.6534C111.33 18.0285 111.128 18.3736 110.862 18.6664C110.596 18.9591 110.272 19.1931 109.909 19.3533C109.547 19.5134 109.155 19.5962 108.759 19.5962C108.362 19.5962 107.97 19.5134 107.608 19.3533C107.246 19.1931 106.921 18.9591 106.655 18.6664C106.389 18.3736 106.188 18.0285 106.064 17.6534C105.94 17.2783 105.896 16.8815 105.935 16.4885ZM110.367 16.4885C110.367 15.1953 109.785 14.4387 108.761 14.4387C107.734 14.4387 107.156 15.1953 107.156 16.4885C107.156 17.7923 107.734 18.5422 108.761 18.5422C109.785 18.5422 110.367 17.787 110.367 16.4885ZM113.168 13.5085H114.305V14.4559H114.393C114.543 14.1155 114.796 13.8302 115.116 13.6397C115.436 13.4492 115.808 13.3631 116.18 13.3933C116.471 13.3715 116.764 13.4153 117.036 13.5214C117.308 13.6275 117.553 13.7933 117.752 14.0064C117.951 14.2196 118.099 14.4746 118.186 14.7526C118.273 15.0307 118.296 15.3246 118.253 15.6126V19.475H117.071V15.9081C117.071 14.9488 116.653 14.4718 115.779 14.4718C115.581 14.4627 115.383 14.4963 115.2 14.5703C115.016 14.6443 114.851 14.7569 114.715 14.9005C114.58 15.0441 114.477 15.2152 114.413 15.4022C114.35 15.5891 114.328 15.7875 114.349 15.9836V19.475H113.167L113.168 13.5085ZM124.929 12.0232V13.535H126.227V14.5275H124.929V17.5948C124.929 18.2202 125.187 18.4945 125.776 18.4945C125.927 18.4938 126.077 18.4845 126.227 18.4667V19.4472C126.014 19.4853 125.799 19.5057 125.583 19.5081C124.27 19.5081 123.747 19.047 123.747 17.8969V14.5275H122.796V13.535H123.747V12.0232H124.929ZM127.841 11.1792H129.011V14.4665H129.104C129.262 14.1229 129.521 13.836 129.848 13.6449C130.175 13.4538 130.553 13.3678 130.931 13.3986C131.221 13.3829 131.511 13.4312 131.78 13.54C132.048 13.6487 132.29 13.8153 132.487 14.0278C132.684 14.2403 132.831 14.4935 132.918 14.7693C133.006 15.045 133.031 15.3366 132.992 15.6232V19.475H131.81V15.9134C131.81 14.9594 131.365 14.4771 130.53 14.4771C130.326 14.4605 130.122 14.4883 129.931 14.5586C129.74 14.6289 129.566 14.74 129.422 14.8842C129.279 15.0283 129.169 15.202 129.099 15.3931C129.03 15.5841 129.004 15.7879 129.022 15.9903V19.475H127.841V11.1792ZM139.882 17.8638C139.722 18.4089 139.374 18.8804 138.9 19.196C138.426 19.5116 137.856 19.6512 137.29 19.5903C136.895 19.6009 136.503 19.5258 136.14 19.3701C135.777 19.2145 135.453 18.982 135.19 18.6888C134.926 18.3956 134.73 18.0488 134.615 17.6725C134.5 17.2962 134.468 16.8994 134.523 16.5097C134.47 16.119 134.503 15.7217 134.618 15.3447C134.733 14.9676 134.928 14.6195 135.189 14.3241C135.451 14.0286 135.773 13.7926 136.135 13.632C136.496 13.4714 136.887 13.39 137.283 13.3933C138.949 13.3933 139.954 14.5275 139.954 16.401V16.8118H135.726V16.878C135.707 17.0971 135.735 17.3176 135.807 17.5253C135.879 17.7331 135.994 17.9236 136.144 18.0846C136.294 18.2455 136.477 18.3734 136.679 18.46C136.882 18.5465 137.101 18.5899 137.321 18.5873C137.604 18.6206 137.89 18.5696 138.143 18.4408C138.396 18.3121 138.606 18.1112 138.744 17.8638H139.882ZM135.726 15.9412H138.751C138.766 15.7409 138.739 15.5395 138.671 15.3503C138.603 15.161 138.497 14.9879 138.358 14.8423C138.219 14.6966 138.051 14.5815 137.864 14.5045C137.678 14.4275 137.478 14.3902 137.276 14.395C137.072 14.3925 136.869 14.4308 136.68 14.5076C136.49 14.5845 136.318 14.6983 136.174 14.8424C136.029 14.9865 135.915 15.158 135.838 15.3467C135.761 15.5354 135.723 15.7376 135.726 15.9412Z" fill="white"/>
</g>
<defs>
<clipPath id="clip0_37_137">
<rect width="159.11" height="53" fill="white" transform="translate(0.587585)"/>
</clipPath>
</defs>
</svg>
