<svg width="60" height="60" viewBox="0 0 60 60" fill="none" xmlns="http://www.w3.org/2000/svg">
<g clip-path="url(#clip0_37_442)">
<path d="M21.5212 33.9415C22.8998 33.9415 24.2474 33.5327 25.3936 32.7668C26.5398 32.0009 27.4331 30.9124 27.9607 29.6388C28.4882 28.3652 28.6263 26.9637 28.3573 25.6117C28.0884 24.2596 27.4246 23.0177 26.4498 22.0429C25.475 21.0682 24.2331 20.4043 22.881 20.1354C21.529 19.8665 20.1275 20.0045 18.8539 20.532C17.5803 21.0596 16.4918 21.9529 15.7259 23.0991C14.96 24.2454 14.5513 25.5929 14.5513 26.9715C14.56 27.2068 14.6596 27.4296 14.8292 27.593C14.9988 27.7564 15.2251 27.8477 15.4606 27.8477C15.6961 27.8477 15.9225 27.7564 16.0921 27.593C16.2616 27.4296 16.3613 27.2068 16.37 26.9715C16.3705 25.9528 16.673 24.9571 17.2394 24.1103C17.8057 23.2635 18.6104 22.6036 19.5517 22.2141C20.493 21.8246 21.5287 21.723 22.5277 21.922C23.5268 22.121 24.4445 22.6119 25.1646 23.3324C25.8848 24.0529 26.3751 24.9708 26.5737 25.9699C26.7723 26.9691 26.6701 28.0047 26.2801 28.9458C25.8902 29.887 25.2299 30.6913 24.3829 31.2572C23.5358 31.8232 22.54 32.1252 21.5212 32.1252C19.6733 32.1272 17.9016 32.8622 16.5949 34.1689C15.2882 35.4756 14.5532 37.2473 14.5513 39.0952C14.5519 39.3362 14.648 39.5672 14.8186 39.7375C14.9891 39.9078 15.2202 40.0036 15.4613 40.004H27.5862C27.8276 40.004 28.0591 39.9081 28.2297 39.7374C28.4004 39.5668 28.4963 39.3353 28.4963 39.094C28.4963 38.8526 28.4004 38.6212 28.2297 38.4505C28.0591 38.2798 27.8276 38.184 27.5862 38.184H16.4613C16.6755 36.9968 17.2991 35.9222 18.2235 35.1471C19.148 34.372 20.3149 33.9454 21.5212 33.9415Z" fill="white"/>
<path d="M44.5388 23.0298C44.4191 23.0298 44.3007 23.0533 44.1902 23.0991C44.0797 23.145 43.9794 23.2121 43.8948 23.2967C43.8103 23.3814 43.7433 23.4818 43.6977 23.5924C43.652 23.7029 43.6286 23.8214 43.6288 23.941V30.606H35.025V20.9085C35.0163 20.6732 34.9166 20.4504 34.7471 20.2869C34.5775 20.1235 34.3511 20.0322 34.1156 20.0322C33.8801 20.0322 33.6538 20.1235 33.4842 20.2869C33.3146 20.4504 33.215 20.6732 33.2063 20.9085V31.516C33.2066 31.7569 33.3024 31.9879 33.4728 32.1582C33.6431 32.3286 33.8741 32.4244 34.115 32.4248H43.625V39.0923C43.6337 39.3276 43.7334 39.5504 43.9029 39.7138C44.0725 39.8772 44.2989 39.9685 44.5344 39.9685C44.7699 39.9685 44.9962 39.8772 45.1658 39.7138C45.3354 39.5504 45.435 39.3276 45.4438 39.0923V23.941C45.4441 23.7003 45.349 23.4693 45.1794 23.2985C45.0098 23.1277 44.7794 23.0311 44.5388 23.0298Z" fill="white"/>
<path d="M30 0C24.0666 0 18.2664 1.75947 13.3329 5.05591C8.39943 8.35235 4.55426 13.0377 2.28363 18.5195C0.0129986 24.0013 -0.581102 30.0333 0.576455 35.8527C1.73401 41.6721 4.59123 47.0176 8.78681 51.2132C12.9824 55.4088 18.3279 58.266 24.1473 59.4236C29.9667 60.5811 35.9987 59.987 41.4805 57.7164C46.9623 55.4458 51.6477 51.6006 54.9441 46.6671C58.2405 41.7336 60 35.9334 60 30C59.9907 22.0463 56.8271 14.4211 51.203 8.79703C45.5789 3.17294 37.9537 0.00926306 30 0ZM44.8563 53.9338L42.8363 50.4338C42.7773 50.3314 42.6988 50.2417 42.6052 50.1697C42.5116 50.0976 42.4047 50.0448 42.2907 50.0141C42.1766 49.9834 42.0577 49.9754 41.9406 49.9907C41.8234 50.006 41.7105 50.0442 41.6081 50.1031C41.5058 50.1621 41.4161 50.2406 41.344 50.3342C41.272 50.4278 41.2192 50.5347 41.1885 50.6487C41.1578 50.7628 41.1498 50.8817 41.1651 50.9988C41.1804 51.1159 41.2186 51.2289 41.2775 51.3312L43.3 54.8375C39.4797 56.8899 35.2347 58.0265 30.9 58.1575V54.1138C30.9 53.8751 30.8052 53.6461 30.6364 53.4774C30.4676 53.3086 30.2387 53.2137 30 53.2137C29.7613 53.2137 29.5324 53.3086 29.3636 53.4774C29.1948 53.6461 29.1 53.8751 29.1 54.1138V58.1588C24.765 58.0271 20.5197 56.8906 16.6988 54.8387L18.7213 51.3387C18.7802 51.2364 18.8184 51.1234 18.8337 51.0063C18.8489 50.8892 18.841 50.7703 18.8103 50.6562C18.7796 50.5422 18.7267 50.4353 18.6547 50.3417C18.5827 50.2481 18.493 50.1696 18.3906 50.1106C18.2883 50.0517 18.1753 50.0135 18.0582 49.9982C17.9411 49.9829 17.8221 49.9909 17.7081 50.0216C17.5941 50.0523 17.4872 50.1051 17.3936 50.1772C17.3 50.2492 17.2214 50.3389 17.1625 50.4412L15.1425 53.9412C11.4636 51.6482 8.35882 48.543 6.06626 44.8637L9.56626 42.845C9.7728 42.7258 9.92353 42.5295 9.9853 42.2992C10.0471 42.0688 10.0148 41.8234 9.89564 41.6169C9.77646 41.4103 9.58011 41.2596 9.34979 41.1978C9.11947 41.1361 8.87405 41.1683 8.66751 41.2875L5.16751 43.3088C3.11508 39.4884 1.97812 35.2435 1.84626 30.9087H5.88626C6.12529 30.9087 6.35453 30.8138 6.52354 30.6448C6.69256 30.4758 6.78751 30.2465 6.78751 30.0075C6.78751 29.7685 6.69256 29.5392 6.52354 29.3702C6.35453 29.2012 6.12529 29.1063 5.88626 29.1063H1.84126C1.97312 24.7715 3.11009 20.5266 5.16251 16.7062L8.66251 18.7288C8.86889 18.8481 9.11421 18.8806 9.34453 18.819C9.57485 18.7575 9.77129 18.607 9.89064 18.4006C10.01 18.1943 10.0425 17.9489 9.98093 17.7186C9.91939 17.4883 9.76889 17.2918 9.56251 17.1725L6.06251 15.1525C8.35577 11.4738 11.4604 8.36876 15.1388 6.075L17.1588 9.575C17.2379 9.71182 17.3516 9.82542 17.4885 9.9044C17.6254 9.98338 17.7807 10.025 17.9388 10.025C18.0969 10.0246 18.252 9.98145 18.3875 9.9C18.4898 9.84107 18.5794 9.76258 18.6514 9.669C18.7233 9.57542 18.7761 9.46859 18.8068 9.3546C18.8374 9.24061 18.8453 9.12171 18.83 9.00467C18.8147 8.88764 18.7764 8.77477 18.7175 8.6725L16.695 5.1725C20.5153 3.11855 24.7608 1.9811 29.0963 1.85V5.88625C29.0963 6.12495 29.1911 6.35386 29.3599 6.52265C29.5287 6.69143 29.7576 6.78625 29.9963 6.78625C30.235 6.78625 30.4639 6.69143 30.6327 6.52265C30.8014 6.35386 30.8963 6.12495 30.8963 5.88625V1.84125C35.2316 1.9733 39.4769 3.1107 43.2975 5.16375L41.2738 8.66375C41.2147 8.76597 41.1763 8.87885 41.1609 8.99592C41.1455 9.113 41.1534 9.23195 41.184 9.34598C41.2147 9.46001 41.2675 9.56688 41.3396 9.66044C41.4116 9.75401 41.5014 9.83244 41.6038 9.89125C41.7396 9.97213 41.8945 10.0153 42.0525 10.0162C42.2108 10.0163 42.3662 9.97478 42.5034 9.89579C42.6405 9.81681 42.7544 9.70317 42.8338 9.56625L44.8538 6.06625C48.5324 8.35918 51.6368 11.4645 53.9288 15.1437L50.4288 17.1637C50.2565 17.2624 50.1216 17.4153 50.0454 17.5986C49.9692 17.7819 49.9558 17.9853 50.0073 18.1771C50.0588 18.3688 50.1724 18.5381 50.3303 18.6585C50.4882 18.7788 50.6815 18.8436 50.88 18.8425C51.0381 18.8421 51.1932 18.799 51.3288 18.7175L54.8288 16.695C56.8812 20.5154 58.0182 24.7602 58.15 29.095H54.1175C53.8785 29.095 53.6493 29.19 53.4802 29.359C53.3112 29.528 53.2163 29.7572 53.2163 29.9963C53.2163 30.2353 53.3112 30.4645 53.4802 30.6335C53.6493 30.8025 53.8785 30.8975 54.1175 30.8975H58.1613C58.0294 35.2323 56.8924 39.4771 54.84 43.2975L51.34 41.2762C51.2377 41.2172 51.1249 41.1789 51.0078 41.1636C50.8907 41.1482 50.7718 41.156 50.6577 41.1866C50.5437 41.2172 50.4368 41.2699 50.3431 41.3418C50.2495 41.4137 50.1709 41.5034 50.1119 41.6056C50.0529 41.7079 50.0146 41.8208 49.9992 41.9378C49.9838 42.0549 49.9916 42.1739 50.0222 42.2879C50.0528 42.4019 50.1056 42.5088 50.1775 42.6025C50.2494 42.6962 50.339 42.7747 50.4413 42.8337L53.9413 44.8525C51.6461 48.5336 48.5383 51.6401 44.8563 53.9338Z" fill="white"/>
</g>
<defs>
<clipPath id="clip0_37_442">
<rect width="60" height="60" fill="white"/>
</clipPath>
</defs>
</svg>
