<svg width="54" height="54" viewBox="0 0 54 54" fill="none" xmlns="http://www.w3.org/2000/svg">
<path d="M27 0.333313C12.3067 0.333313 0.333344 12.3066 0.333344 27C0.333344 41.6933 12.3067 53.6666 27 53.6666C41.6933 53.6666 53.6667 41.6933 53.6667 27C53.6667 12.3066 41.6933 0.333313 27 0.333313ZM37.8267 31.7733C37.4267 32.1733 36.92 32.36 36.4133 32.36C35.9067 32.36 35.4 32.1733 35 31.7733L27 23.7733L19 31.7733C18.2267 32.5466 16.9467 32.5466 16.1733 31.7733C15.8014 31.3969 15.5928 30.8891 15.5928 30.36C15.5928 29.8308 15.8014 29.323 16.1733 28.9466L25.5867 19.5333C26.36 18.76 27.64 18.76 28.4133 19.5333L37.8267 28.9466C38.6 29.7466 38.6 31 37.8267 31.7733Z" fill="#1678F2"/>
</svg>
