<svg width="180" height="53" viewBox="0 0 180 53" fill="none" xmlns="http://www.w3.org/2000/svg">
<g clip-path="url(#clip0_37_125)">
<path fill-rule="evenodd" clip-rule="evenodd" d="M173.195 53H7.34366C3.68591 53 0.706985 50.013 0.706985 46.375V6.625C0.706985 2.97382 3.68591 0 7.34366 0H173.195C176.849 0 179.831 2.97382 179.831 6.625V46.375C179.831 50.013 176.849 53 173.195 53Z" fill="black"/>
<path fill-rule="evenodd" clip-rule="evenodd" d="M173.195 1.06066C176.263 1.06066 178.774 3.56197 178.774 6.625V46.375C178.774 49.438 176.279 51.9393 173.195 51.9393H7.34366C4.27576 51.9393 1.76477 49.438 1.76477 46.375V6.625C1.76477 3.56197 4.25929 1.06066 7.34366 1.06066H173.195ZM173.195 0H7.34366C3.68591 0 0.706985 2.98703 0.706985 6.625V46.375C0.706985 50.0262 3.68591 53 7.34366 53H173.195C176.849 53 179.831 50.0262 179.831 46.375V6.625C179.831 2.98703 176.849 0 173.195 0Z" fill="#A6A6A6"/>
<path d="M95.07 17.5322C93.8739 17.5322 92.8655 17.1126 92.0681 16.2866C91.2772 15.4836 90.8356 14.3767 90.8554 13.2466C90.8554 12.0406 91.264 11.0196 92.0681 10.2101C92.8622 9.38399 93.8706 8.96436 95.0667 8.96436C96.2497 8.96436 97.2581 9.38399 98.0687 10.2101C98.8727 11.046 99.2814 12.067 99.2814 13.2466C99.2682 14.456 98.8596 15.477 98.0687 16.2832C97.2746 17.1159 96.2662 17.5322 95.07 17.5322ZM59.4781 17.5322C58.3083 17.5322 57.2933 17.1192 56.4629 16.3031C55.6391 15.4902 55.2206 14.4626 55.2206 13.25C55.2206 12.0373 55.6391 11.0097 56.4629 10.1968C57.2769 9.38069 58.2918 8.96766 59.4781 8.96766C60.0581 8.96766 60.6215 9.08331 61.162 9.31791C61.6925 9.5459 62.1242 9.8565 62.4438 10.2365L62.5229 10.3323L61.6299 11.2112L61.5376 11.1022C61.0335 10.5008 60.3579 10.2067 59.4649 10.2067C58.6675 10.2067 57.9722 10.4909 57.3988 11.0526C56.8221 11.6177 56.5289 12.3578 56.5289 13.2533C56.5289 14.1487 56.8221 14.8889 57.3988 15.4539C57.9722 16.0156 58.6675 16.2998 59.4649 16.2998C60.3151 16.2998 61.0302 16.0156 61.5871 15.4539C61.9166 15.1235 62.1209 14.6609 62.1934 14.076H59.3298V12.8402H63.4225L63.439 12.9526C63.4686 13.1607 63.4983 13.3755 63.4983 13.5738C63.4983 14.7137 63.1556 15.6356 62.4768 16.3163C61.7057 17.1225 60.6973 17.5322 59.4781 17.5322ZM106.801 17.3571H105.539L101.674 11.1551L101.707 12.2719V17.3538H100.445V9.14279H101.885L101.924 9.20557L105.559 15.0475L105.526 13.9339V9.14279H106.801V17.3571ZM85.5863 17.3571H84.3078V10.3786H82.0901V9.14279H87.8007V10.3786H85.583V17.3571H85.5863ZM81.0488 17.3571H79.7735V9.14279H81.0488V17.3571ZM73.8816 17.3571H72.6063V10.3786H70.3887V9.14279H76.0993V10.3786H73.8816V17.3571ZM69.5813 17.3439H64.6912V9.14279H69.5813V10.3786H65.9697V12.6321H69.2287V13.8546H65.9697V16.1081H69.5813V17.3439ZM93.0039 15.4374C93.574 16.009 94.266 16.2965 95.07 16.2965C95.8971 16.2965 96.5727 16.0156 97.1362 15.4374C97.6963 14.8756 97.9797 14.1388 97.9797 13.25C97.9797 12.3611 97.6963 11.621 97.1394 11.0625C96.5694 10.4909 95.8741 10.2034 95.0733 10.2034C94.2462 10.2034 93.5707 10.4843 93.0105 11.0625C92.4503 11.6243 92.1669 12.3611 92.1669 13.25C92.1669 14.1388 92.447 14.8789 93.0039 15.4374Z" fill="white"/>
<path fill-rule="evenodd" clip-rule="evenodd" d="M90.7369 28.8261C87.6229 28.8261 85.0987 31.1952 85.0987 34.4631C85.0987 37.7013 87.6394 40.1002 90.7369 40.1002C93.851 40.1002 96.3751 37.7145 96.3751 34.4631C96.3751 31.1952 93.851 28.8261 90.7369 28.8261ZM90.7369 37.8665C89.0333 37.8665 87.5669 36.4523 87.5669 34.4499C87.5669 32.4178 89.0366 31.0333 90.7369 31.0333C92.4406 31.0333 93.907 32.4178 93.907 34.4499C93.9103 36.4655 92.4406 37.8665 90.7369 37.8665ZM78.4357 28.8261C75.3216 28.8261 72.7974 31.1952 72.7974 34.4631C72.7974 37.7013 75.3381 40.1002 78.4357 40.1002C81.5497 40.1002 84.0739 37.7145 84.0739 34.4631C84.0739 31.1952 81.5464 28.8261 78.4357 28.8261ZM78.4357 37.8665C76.732 37.8665 75.2656 36.4523 75.2656 34.4499C75.2656 32.4178 76.7353 31.0333 78.4357 31.0333C80.1393 31.0333 81.6057 32.4178 81.6057 34.4499C81.6057 36.4655 80.1393 37.8665 78.4357 37.8665ZM63.798 30.5476V32.9333H69.5088C69.3341 34.2715 68.8925 35.2595 68.217 35.9368C67.38 36.7761 66.0883 37.6881 63.8112 37.6881C60.3018 37.6881 57.5568 34.8464 57.5568 31.3274C57.5568 27.8084 60.3018 24.9667 63.8112 24.9667C65.706 24.9667 67.0867 25.7168 68.1116 26.675L69.7987 24.9833C68.3752 23.6153 66.4804 22.5679 63.8244 22.5679C59.01 22.5679 54.97 26.4999 54.97 31.3142C54.97 36.1417 59.0067 40.0605 63.8244 40.0605C66.4244 40.0605 68.3752 39.208 69.9174 37.6022C71.4892 36.026 71.9868 33.8023 71.9868 32.0081C71.9868 31.4497 71.944 30.9474 71.855 30.5212H63.7948C63.798 30.5179 63.798 30.5476 63.798 30.5476ZM123.67 32.4046C123.199 31.1391 121.775 28.8129 118.856 28.8129C115.962 28.8129 113.557 31.0961 113.557 34.4499C113.557 37.6154 115.936 40.0869 119.136 40.0869C121.706 40.0869 123.202 38.5108 123.818 37.5856L121.91 36.3036C121.278 37.2453 120.398 37.8632 119.149 37.8632C117.887 37.8632 117.004 37.2883 116.417 36.1549L123.934 33.0324C123.934 33.0357 123.67 32.4046 123.67 32.4046ZM116.005 34.288C115.946 32.1105 117.692 31.0036 118.941 31.0036C119.926 31.0036 120.747 31.4893 121.027 32.1964L116.005 34.288ZM109.899 39.7499H112.367V23.1891H109.899V39.7499ZM105.846 30.0784H105.757C105.2 29.4143 104.142 28.8129 102.791 28.8129C99.9868 28.8129 97.4033 31.2878 97.4033 34.4664C97.4033 37.6319 99.9736 40.077 102.791 40.077C104.126 40.077 105.2 39.4724 105.757 38.795H105.846V39.6045C105.846 41.7556 104.699 42.9154 102.85 42.9154C101.338 42.9154 100.399 41.825 100.016 40.913L97.8712 41.8118C98.4874 43.2987 100.132 45.1391 102.847 45.1391C105.74 45.1391 108.192 43.4308 108.192 39.2642V29.1499H105.859V30.0784H105.846ZM103.012 37.8665C101.308 37.8665 99.8846 36.4391 99.8846 34.4664C99.8846 32.4773 101.308 31.0366 103.012 31.0366C104.699 31.0366 106.007 32.4938 106.007 34.4664C106.024 36.4391 104.702 37.8665 103.012 37.8665ZM135.226 23.1891H129.325V39.7499H131.793V33.4785H135.23C137.962 33.4785 140.647 31.4926 140.647 28.3404C140.647 25.1881 137.971 23.1891 135.226 23.1891ZM135.299 31.1655H131.789V25.4822H135.299C137.148 25.4822 138.192 27.0121 138.192 28.3239C138.192 29.6224 137.134 31.1655 135.299 31.1655ZM150.54 28.7964C148.747 28.7964 146.898 29.5927 146.134 31.3274L148.322 32.2394C148.793 31.3274 149.656 31.0168 150.569 31.0168C151.848 31.0168 153.14 31.7834 153.169 33.1513V33.3265C152.728 33.0753 151.759 32.6921 150.599 32.6921C148.236 32.6921 145.841 33.9873 145.841 36.4159C145.841 38.6397 147.778 40.0671 149.937 40.0671C151.594 40.0671 152.507 39.3171 153.077 38.448H153.166V39.7301H155.545V33.386C155.545 30.432 153.357 28.7964 150.54 28.7964ZM150.23 37.8665C149.423 37.8665 148.292 37.47 148.292 36.4523C148.292 35.1702 149.703 34.6845 150.905 34.6845C151.993 34.6845 152.507 34.9191 153.153 35.2429C152.975 36.7298 151.723 37.8533 150.23 37.8665ZM164.225 29.1499L161.391 36.3333H161.302L158.366 29.1499H155.71L160.116 39.1915L157.605 44.7724H160.175L166.953 29.1499H164.225ZM142.008 39.7499H144.476V23.1891H142.008V39.7499Z" fill="white"/>
<path fill-rule="evenodd" clip-rule="evenodd" d="M14.4945 9.98228C14.1122 10.3953 13.8914 11.0264 13.8914 11.8525V41.1512C13.8914 41.9772 14.1122 42.6083 14.5076 43.0048L14.6098 43.0941L30.9807 26.6786V26.3118L14.5966 9.89307L14.4945 9.98228Z" fill="url(#paint0_linear_37_125)"/>
<path fill-rule="evenodd" clip-rule="evenodd" d="M36.4277 32.1665L30.9675 26.6914V26.3081L36.4277 20.833L36.5463 20.9057L43.005 24.5866C44.8536 25.6308 44.8536 27.3556 43.005 28.4129L36.5463 32.0939L36.4277 32.1665Z" fill="url(#paint1_linear_37_125)"/>
<path fill-rule="evenodd" clip-rule="evenodd" d="M36.5463 32.0941L30.9674 26.5L14.4944 43.0179C15.0974 43.6655 16.109 43.7382 17.2393 43.1071L36.5463 32.0941Z" fill="url(#paint2_linear_37_125)"/>
<path fill-rule="evenodd" clip-rule="evenodd" d="M36.5463 20.9057L17.2393 9.90923C16.109 9.2616 15.0941 9.35082 14.4944 9.99845L30.9674 26.4998L36.5463 20.9057Z" fill="url(#paint3_linear_37_125)"/>
<path opacity="0.2" fill-rule="evenodd" clip-rule="evenodd" d="M36.4277 31.9751L17.2525 42.8991C16.1816 43.517 15.226 43.474 14.6097 42.9123L14.5076 43.0147L14.6097 43.1039C15.226 43.6623 16.1816 43.7086 17.2525 43.0907L36.5595 32.0941L36.4277 31.9751Z" fill="black"/>
<path opacity="0.12" fill-rule="evenodd" clip-rule="evenodd" d="M43.0051 28.2215L36.4112 31.9751L36.5299 32.0941L42.9886 28.4132C43.9146 27.8845 44.3693 27.1906 44.3693 26.5C44.3133 27.1344 43.8421 27.7358 43.0051 28.2215Z" fill="black"/>
<path opacity="0.25" fill-rule="evenodd" clip-rule="evenodd" d="M17.2394 10.1013L43.0051 24.7787C43.8421 25.2512 44.3134 25.8691 44.3858 26.5002C44.3858 25.8096 43.9311 25.1157 43.0051 24.5871L17.2394 9.90963C15.3908 8.84897 13.8914 9.73451 13.8914 11.8525V12.0442C13.8914 9.92285 15.3908 9.05384 17.2394 10.1013Z" fill="white"/>
</g>
<defs>
<linearGradient id="paint0_linear_37_125" x1="29.5124" y1="11.5366" x2="3.27929" y2="18.5075" gradientUnits="userSpaceOnUse">
<stop stop-color="#00A0FF"/>
<stop offset="0.007" stop-color="#00A1FF"/>
<stop offset="0.26" stop-color="#00BEFF"/>
<stop offset="0.512" stop-color="#00D2FF"/>
<stop offset="0.76" stop-color="#00DFFF"/>
<stop offset="1" stop-color="#00E3FF"/>
</linearGradient>
<linearGradient id="paint1_linear_37_125" x1="45.4157" y1="26.4997" x2="13.4421" y2="26.4997" gradientUnits="userSpaceOnUse">
<stop stop-color="#FFE000"/>
<stop offset="0.409" stop-color="#FFBD00"/>
<stop offset="0.775" stop-color="#FFA500"/>
<stop offset="1" stop-color="#FF9C00"/>
</linearGradient>
<linearGradient id="paint2_linear_37_125" x1="33.5125" y1="29.5442" x2="12.3759" y2="65.022" gradientUnits="userSpaceOnUse">
<stop stop-color="#FF3A44"/>
<stop offset="1" stop-color="#C31162"/>
</linearGradient>
<linearGradient id="paint3_linear_37_125" x1="10.3464" y1="0.236558" x2="19.7762" y2="16.0819" gradientUnits="userSpaceOnUse">
<stop stop-color="#32A071"/>
<stop offset="0.069" stop-color="#2DA771"/>
<stop offset="0.476" stop-color="#15CF74"/>
<stop offset="0.801" stop-color="#06E775"/>
<stop offset="1" stop-color="#00F076"/>
</linearGradient>
<clipPath id="clip0_37_125">
<rect width="179.124" height="53" fill="white" transform="translate(0.706985)"/>
</clipPath>
</defs>
</svg>
