<svg width="60" height="60" viewBox="0 0 60 60" fill="none" xmlns="http://www.w3.org/2000/svg">
<path d="M30 0C24.0666 0 18.2664 1.75947 13.3329 5.05591C8.39943 8.35235 4.55426 13.0377 2.28363 18.5195C0.0129984 24.0013 -0.581102 30.0333 0.576455 35.8527C1.73401 41.6721 4.59124 47.0176 8.78681 51.2132C12.9824 55.4088 18.3279 58.266 24.1473 59.4236C29.9667 60.5811 35.9987 59.987 41.4805 57.7164C46.9623 55.4458 51.6477 51.6006 54.9441 46.6671C58.2405 41.7336 60 35.9334 60 30C60 22.0435 56.8393 14.4129 51.2132 8.7868C45.5871 3.16071 37.9565 0 30 0ZM30 58.125C24.4374 58.125 18.9997 56.4755 14.3746 53.3851C9.74947 50.2947 6.14462 45.9021 4.0159 40.763C1.88719 35.6238 1.33022 29.9688 2.41543 24.5131C3.50064 19.0574 6.17928 14.046 10.1126 10.1126C14.046 6.17927 19.0574 3.50062 24.5131 2.41541C29.9688 1.3302 35.6238 1.88717 40.763 4.01589C45.9022 6.1446 50.2947 9.74946 53.3851 14.3746C56.4755 18.9997 58.125 24.4374 58.125 30C58.125 37.4592 55.1619 44.6129 49.8874 49.8874C44.6129 55.1618 37.4592 58.125 30 58.125Z" fill="white"/>
<path d="M52.5 29.0625H50.625C50.625 28.3166 50.3287 27.6012 49.8012 27.0738C49.2738 26.5463 48.5584 26.25 47.8125 26.25V24.375H46.875V15.9375C46.875 14.197 46.1836 12.5278 44.9529 11.2971C43.7222 10.0664 42.053 9.375 40.3125 9.375H19.6875C17.947 9.375 16.2778 10.0664 15.0471 11.2971C13.8164 12.5278 13.125 14.197 13.125 15.9375V24.375H12.1875V26.25C11.4416 26.25 10.7262 26.5463 10.1988 27.0738C9.67132 27.6012 9.375 28.3166 9.375 29.0625H7.5C7.25136 29.0625 7.0129 29.1613 6.83709 29.3371C6.66127 29.5129 6.5625 29.7514 6.5625 30V37.5C6.5625 37.7486 6.66127 37.9871 6.83709 38.1629C7.0129 38.3387 7.25136 38.4375 7.5 38.4375H9.375C9.375 39.1834 9.67132 39.8988 10.1988 40.4262C10.7262 40.9537 11.4416 41.25 12.1875 41.25H15.9375C16.1861 41.25 16.4246 41.1512 16.6004 40.9754C16.7762 40.7996 16.875 40.5611 16.875 40.3125V27.1875C16.875 26.9389 16.7762 26.7004 16.6004 26.5246C16.4246 26.3488 16.1861 26.25 15.9375 26.25V24.375H15V15.9375C15 14.6943 15.4939 13.502 16.3729 12.6229C17.252 11.7439 18.4443 11.25 19.6875 11.25H40.3125C40.9281 11.25 41.5376 11.3712 42.1063 11.6068C42.675 11.8424 43.1918 12.1877 43.6271 12.6229C44.0623 13.0582 44.4076 13.575 44.6432 14.1437C44.8788 14.7124 45 15.3219 45 15.9375V24.375H44.0625V26.25C43.8139 26.25 43.5754 26.3488 43.3996 26.5246C43.2238 26.7004 43.125 26.9389 43.125 27.1875V40.3125C43.125 40.5611 43.2238 40.7996 43.3996 40.9754C43.5754 41.1512 43.8139 41.25 44.0625 41.25H45.9375C45.7804 42.4757 45.2465 43.6223 44.4094 44.5312C42.5625 46.5375 39.2062 47.6531 34.6875 47.8125V46.875C34.6875 46.6264 34.5887 46.3879 34.4129 46.2121C34.2371 46.0363 33.9986 45.9375 33.75 45.9375H24.375C24.1264 45.9375 23.8879 46.0363 23.7121 46.2121C23.5363 46.3879 23.4375 46.6264 23.4375 46.875V50.625C23.4375 50.8736 23.5363 51.1121 23.7121 51.2879C23.8879 51.4637 24.1264 51.5625 24.375 51.5625H33.75C33.9986 51.5625 34.2371 51.4637 34.4129 51.2879C34.5887 51.1121 34.6875 50.8736 34.6875 50.625V49.6875C39.8531 49.5469 43.6031 48.2438 45.8063 45.7781C46.9486 44.5264 47.6528 42.9371 47.8125 41.25C48.5584 41.25 49.2738 40.9537 49.8012 40.4262C50.3287 39.8988 50.625 39.1834 50.625 38.4375H52.5C52.7486 38.4375 52.9871 38.3387 53.1629 38.1629C53.3387 37.9871 53.4375 37.7486 53.4375 37.5V30C53.4375 29.7514 53.3387 29.5129 53.1629 29.3371C52.9871 29.1613 52.7486 29.0625 52.5 29.0625ZM9.375 36.5625H8.4375V30.9375H9.375V36.5625ZM15 39.375H12.1875C11.9389 39.375 11.7004 39.2762 11.5246 39.1004C11.3488 38.9246 11.25 38.6861 11.25 38.4375V29.0625C11.25 28.8139 11.3488 28.5754 11.5246 28.3996C11.7004 28.2238 11.9389 28.125 12.1875 28.125H15V39.375ZM32.8125 49.6875H25.3125V47.8125H32.8125V49.6875ZM48.75 30V38.4375C48.75 38.6861 48.6512 38.9246 48.4754 39.1004C48.2996 39.2762 48.0611 39.375 47.8125 39.375H45V28.125H47.8125C48.0611 28.125 48.2996 28.2238 48.4754 28.3996C48.6512 28.5754 48.75 28.8139 48.75 29.0625V30ZM51.5625 36.5625H50.625V30.9375H51.5625V36.5625Z" fill="white"/>
<path d="M30.9375 29.0625H29.0625V30.9375H30.9375V29.0625Z" fill="white"/>
<path d="M35.625 29.0625H33.75V30.9375H35.625V29.0625Z" fill="white"/>
<path d="M26.25 29.0625H24.375V30.9375H26.25V29.0625Z" fill="white"/>
</svg>
