<svg width="143" height="39" viewBox="0 0 143 39" fill="none" xmlns="http://www.w3.org/2000/svg">
<circle cx="134.5" cy="8.5" r="8.5" fill="#F27219"/>
<rect x="132.652" y="3.6958" width="3.69565" height="9.6087" rx="0.782609" fill="white"/>
<rect x="139.304" y="6.65234" width="3.69565" height="9.6087" rx="0.782609" transform="rotate(90 139.304 6.65234)" fill="white"/>
<path d="M15.552 11.748V28.5H12.192V21.372H5.016V28.5H1.656V11.748H5.016V18.636H12.192V11.748H15.552ZM31.2191 21.564C31.2191 22.044 31.1871 22.476 31.1231 22.86H21.4031C21.4831 23.82 21.8191 24.572 22.4111 25.116C23.0031 25.66 23.7311 25.932 24.5951 25.932C25.8431 25.932 26.7311 25.396 27.2591 24.324H30.8831C30.4991 25.604 29.7631 26.66 28.6751 27.492C27.5871 28.308 26.2511 28.716 24.6671 28.716C23.3871 28.716 22.2351 28.436 21.2111 27.876C20.2031 27.3 19.4111 26.492 18.8351 25.452C18.2751 24.412 17.9951 23.212 17.9951 21.852C17.9951 20.476 18.2751 19.268 18.8351 18.228C19.3951 17.188 20.1791 16.388 21.1871 15.828C22.1951 15.268 23.3551 14.988 24.6671 14.988C25.9311 14.988 27.0591 15.26 28.0511 15.804C29.0591 16.348 29.8351 17.124 30.3791 18.132C30.9391 19.124 31.2191 20.268 31.2191 21.564ZM27.7391 20.604C27.7231 19.74 27.4111 19.052 26.8031 18.54C26.1951 18.012 25.4511 17.748 24.5711 17.748C23.7391 17.748 23.0351 18.004 22.4591 18.516C21.8991 19.012 21.5551 19.708 21.4271 20.604H27.7391ZM32.8076 21.804C32.8076 20.46 33.0716 19.268 33.5996 18.228C34.1436 17.188 34.8716 16.388 35.7836 15.828C36.7116 15.268 37.7436 14.988 38.8796 14.988C39.8716 14.988 40.7356 15.188 41.4716 15.588C42.2236 15.988 42.8236 16.492 43.2716 17.1V15.204H46.6556V28.5H43.2716V26.556C42.8396 27.18 42.2396 27.7 41.4716 28.116C40.7196 28.516 39.8476 28.716 38.8556 28.716C37.7356 28.716 36.7116 28.428 35.7836 27.852C34.8716 27.276 34.1436 26.468 33.5996 25.428C33.0716 24.372 32.8076 23.164 32.8076 21.804ZM43.2716 21.852C43.2716 21.036 43.1116 20.34 42.7916 19.764C42.4716 19.172 42.0396 18.724 41.4956 18.42C40.9516 18.1 40.3676 17.94 39.7436 17.94C39.1196 17.94 38.5436 18.092 38.0156 18.396C37.4876 18.7 37.0556 19.148 36.7196 19.74C36.3996 20.316 36.2396 21.004 36.2396 21.804C36.2396 22.604 36.3996 23.308 36.7196 23.916C37.0556 24.508 37.4876 24.964 38.0156 25.284C38.5596 25.604 39.1356 25.764 39.7436 25.764C40.3676 25.764 40.9516 25.612 41.4956 25.308C42.0396 24.988 42.4716 24.54 42.7916 23.964C43.1116 23.372 43.2716 22.668 43.2716 21.852ZM53.2973 10.74V28.5H49.9373V10.74H53.2973ZM60.5289 17.964V24.396C60.5289 24.844 60.6329 25.172 60.8409 25.38C61.0649 25.572 61.4329 25.668 61.9449 25.668H63.5049V28.5H61.3929C58.5609 28.5 57.1449 27.124 57.1449 24.372V17.964H55.5609V15.204H57.1449V11.916H60.5289V15.204H63.5049V17.964H60.5289ZM73.4096 15.012C74.4176 15.012 75.3136 15.236 76.0976 15.684C76.8816 16.116 77.4896 16.764 77.9216 17.628C78.3696 18.476 78.5936 19.5 78.5936 20.7V28.5H75.2336V21.156C75.2336 20.1 74.9696 19.292 74.4416 18.732C73.9136 18.156 73.1936 17.868 72.2816 17.868C71.3536 17.868 70.6176 18.156 70.0736 18.732C69.5456 19.292 69.2816 20.1 69.2816 21.156V28.5H65.9216V10.74H69.2816V16.86C69.7136 16.284 70.2896 15.836 71.0096 15.516C71.7296 15.18 72.5296 15.012 73.4096 15.012ZM94.5088 15.204L86.2768 34.788H82.7008L85.5808 28.164L80.2528 15.204H84.0208L87.4528 24.492L90.9328 15.204H94.5088ZM102.711 24.708C104.247 23.428 105.471 22.364 106.383 21.516C107.295 20.652 108.055 19.756 108.663 18.828C109.271 17.9 109.575 16.988 109.575 16.092C109.575 15.276 109.383 14.636 108.999 14.172C108.615 13.708 108.023 13.476 107.223 13.476C106.423 13.476 105.807 13.748 105.375 14.292C104.943 14.82 104.719 15.548 104.703 16.476H101.439C101.503 14.556 102.071 13.1 103.143 12.108C104.231 11.116 105.607 10.62 107.271 10.62C109.095 10.62 110.495 11.108 111.471 12.084C112.447 13.044 112.935 14.316 112.935 15.9C112.935 17.148 112.599 18.34 111.927 19.476C111.255 20.612 110.487 21.604 109.623 22.452C108.759 23.284 107.631 24.292 106.239 25.476H113.319V28.26H101.463V25.764L102.711 24.708ZM115.292 25.092V22.452L123.14 11.22H127.052V22.164H129.164V25.092H127.052V28.5H123.692V25.092H115.292ZM123.908 14.82L118.988 22.164H123.908V14.82ZM133.175 28.668C132.567 28.668 132.063 28.484 131.663 28.116C131.279 27.732 131.087 27.26 131.087 26.7C131.087 26.14 131.279 25.676 131.663 25.308C132.063 24.924 132.567 24.732 133.175 24.732C133.767 24.732 134.255 24.924 134.639 25.308C135.023 25.676 135.215 26.14 135.215 26.7C135.215 27.26 135.023 27.732 134.639 28.116C134.255 28.484 133.767 28.668 133.175 28.668Z" fill="#005EA3"/>
</svg>
