<svg width="20" height="27" viewBox="0 0 20 27" fill="none" xmlns="http://www.w3.org/2000/svg">
<path d="M9.7784 0C4.38654 0 0 4.37666 0 9.75626C0 16.4326 8.75065 26.2337 9.12325 26.6476C9.47317 27.0364 10.0842 27.0358 10.4336 26.6476C10.806 26.2337 19.5567 16.4326 19.5567 9.75626C19.5566 4.37666 15.1702 0 9.7784 0ZM9.7784 14.6649C7.0656 14.6649 4.85868 12.463 4.85868 9.75626C4.85868 7.04962 7.06566 4.84766 9.7784 4.84766C12.4911 4.84766 14.6981 7.04967 14.6981 9.75631C14.6981 12.463 12.4911 14.6649 9.7784 14.6649Z" fill="#1E1E1E"/>
</svg>
