<svg width="60" height="57" viewBox="0 0 60 57" fill="none" xmlns="http://www.w3.org/2000/svg">
<path d="M45.6291 5.0752H17.9925V6.97905H45.6291V5.0752Z" fill="white"/>
<path d="M60 19.8587H0V5.0752H9.01125V6.97905H1.875V17.9548H58.125V6.97905H54.412V5.0752H60V19.8587Z" fill="white"/>
<path d="M58.8164 56.4076H1.18454V23.231H3.05954V54.5037H56.9414V23.231H58.8164V56.4076Z" fill="white"/>
<path d="M15.0961 13.138H8.33578V0H15.0961V13.138ZM10.2108 11.2342H13.2211V1.90386H10.2108V11.2342Z" fill="white"/>
<path d="M51.6647 13.138H44.9034V0H51.6647V13.138ZM46.7784 11.2342H49.7897V1.90386H46.7784V11.2342Z" fill="white"/>
<path d="M35.0255 49.7582H24.975V41.8048H17.2186V31.5183H24.975V23.5649H35.0255V31.5183H42.7819V41.8048H35.0255V49.7582ZM26.85 47.8544H33.1505V39.901H40.9069V33.4222H33.1505V25.4688H26.85V33.4222H19.0936V39.901H26.85V47.8544Z" fill="white"/>
</svg>
