<svg width="60" height="55" viewBox="0 0 60 55" fill="none" xmlns="http://www.w3.org/2000/svg">
<path d="M11.8983 25.6158H10.0238V17.5996C9.75095 16.0489 8.6733 14.4283 7.17564 14.4278L5.85283 14.4373L5.76892 12.5353C5.84626 12.5282 5.90298 12.5244 5.96392 12.5244L7.17564 12.5239C9.76033 12.5249 11.5017 14.9609 11.8861 17.3664L11.8983 17.5192V25.6158Z" fill="white"/>
<path d="M24.6877 43.0223H22.8127V37.9056L22.3988 31.3326L13.9106 22.6652C13.6608 22.907 13.4325 23.1284 13.4325 23.1284C12.4809 24.047 12.0567 25.9442 12.8236 27.0013L18.2034 32.4949L16.8755 33.8385L11.6058 28.4839C11.5434 28.4158 11.4834 28.3464 11.4267 28.2754L8.39391 25.1783L5.15859 21.689V13.294C4.88672 11.7442 3.80953 10.1245 2.31094 10.1236H1.89328L2.03297 23.4991L12.6928 41.7662L11.0798 42.7367L0.164531 24.0298L0 8.28922L0.887812 8.23258C0.976875 8.22496 1.03641 8.22068 1.09922 8.22068L2.31141 8.21973C4.8975 8.22068 6.63844 10.6562 7.02187 13.0612L7.03406 13.2135V20.9342L9.74203 23.8552L10.6219 24.7538C10.8089 23.6048 11.3569 22.5063 12.1397 21.7504C13.2656 20.6595 13.2966 20.6324 13.3214 20.611L13.9819 20.0389L24.225 30.4972L24.6877 37.8756V43.0223Z" fill="white"/>
<path d="M28.5455 54.5304H26.671V43.7408H9.67596V54.5304H7.80096V41.8369H28.5455V54.5304Z" fill="white"/>
<path d="M49.9875 25.6158H48.113L48.1247 17.3678C48.5072 14.9618 50.2467 12.5258 52.8319 12.5244L54.0474 12.5249C54.1059 12.5249 54.1627 12.5287 54.2194 12.5339L54.1575 14.4378L54.0539 14.4302L52.8319 14.4283C51.3352 14.4287 50.2584 16.0494 49.9875 17.5996V25.6158Z" fill="white"/>
<path d="M37.1958 43.0223H35.3208L35.3227 37.8152L35.7849 30.4977L46.0275 20.0399L46.688 20.612C46.7297 20.6481 46.7569 20.6719 47.8599 21.8257C48.6272 22.5653 49.1667 23.651 49.3542 24.789L50.2866 23.8371L52.9758 20.9351L52.9875 13.0627C53.37 10.6572 55.1105 8.22213 57.6966 8.2207L58.9106 8.22166C58.9721 8.22166 59.0325 8.22594 59.0925 8.23117L59.9803 8.28877L60 9.19262L59.8449 24.0299L48.9291 42.7367L47.3161 41.7662L57.9755 23.4992L58.1152 10.1246L57.6966 10.1236C56.1989 10.1241 55.1217 11.7438 54.8513 13.2935V21.6891L51.6342 25.1598L48.5981 28.2602C48.5321 28.3459 48.4617 28.4287 48.3872 28.5092L43.0978 33.8861L41.7 32.6224L41.8069 32.4954L47.1881 26.9999C47.9077 25.9547 47.4825 24.0856 46.5408 23.1774C46.5286 23.1646 46.313 22.9394 46.0749 22.6905L37.6106 31.3331L37.1953 37.9066L37.1958 43.0223Z" fill="white"/>
<path d="M52.208 54.5304H50.3334V43.7408H33.3366V54.5304H31.462V41.8369H52.208V54.5304Z" fill="white"/>
<path d="M30.1683 28.1381L17.9212 15.6307C14.6198 12.2604 14.6198 6.77534 17.9217 3.40409L18.0333 3.28986C19.6341 1.65444 21.7631 0.754395 24.0281 0.754395C26.2931 0.754395 28.4222 1.65492 30.0234 3.28986L30.1678 3.43741L30.3108 3.29081C31.9134 1.65492 34.043 0.75487 36.3075 0.75487C38.5725 0.75487 40.7011 1.6554 42.3019 3.29033L42.4144 3.40552C45.7148 6.7763 45.7144 12.2608 42.4134 15.6321L30.1683 28.1381ZM24.0281 2.65778C22.2661 2.65778 20.6095 3.35887 19.3631 4.6316L19.2511 4.74583C16.6739 7.37744 16.6739 11.6583 19.2511 14.2889L30.1687 25.4384L41.0845 14.2894C43.6612 11.6583 43.6612 7.37744 41.085 4.74631L40.9725 4.63113C39.7275 3.35935 38.0705 2.65825 36.3084 2.65825C34.5459 2.65825 32.8889 3.35935 31.6416 4.63208L30.1697 6.13803L28.695 4.6316C27.4477 3.35887 25.7906 2.65778 24.0281 2.65778Z" fill="white"/>
</svg>
