<svg width="32" height="32" viewBox="0 0 32 32" fill="none" xmlns="http://www.w3.org/2000/svg">
<path d="M29.3333 11.3334C29.3335 12.5301 29.0858 13.7138 28.6059 14.81C28.1261 15.9062 27.4244 16.8912 26.5451 17.7028C25.6658 18.5145 24.6279 19.1353 23.4969 19.5261C22.3658 19.9169 21.1661 20.0692 19.9733 19.9734C19.8065 17.9216 18.9156 15.9958 17.46 14.5401C16.0043 13.0845 14.0785 12.1936 12.0267 12.0268C11.9353 10.8642 12.0794 9.69518 12.4505 8.58966C12.8216 7.48415 13.412 6.46489 14.1863 5.59292C14.9606 4.72096 15.9029 4.01423 16.9568 3.51506C18.0107 3.01589 19.1545 2.73453 20.3197 2.68785C21.4849 2.64117 22.6476 2.83013 23.738 3.24339C24.8285 3.65666 25.8243 4.28574 26.6659 5.09297C27.5075 5.9002 28.1775 6.86896 28.6359 7.94125C29.0942 9.01354 29.3314 10.1673 29.3333 11.3334Z" stroke="#F27219" stroke-width="2" stroke-linecap="round" stroke-linejoin="round"/>
<path d="M20 20.6667C20 22.9653 19.0869 25.1697 17.4616 26.795C15.8363 28.4203 13.6319 29.3334 11.3333 29.3334C9.03478 29.3334 6.83038 28.4203 5.20506 26.795C3.57975 25.1697 2.66666 22.9653 2.66666 20.6667C2.66666 18.3682 3.57975 16.1638 5.20506 14.5385C6.83038 12.9132 9.03478 12.0001 11.3333 12.0001C13.6319 12.0001 15.8363 12.9132 17.4616 14.5385C19.0869 16.1638 20 18.3682 20 20.6667ZM7.45332 2.66675H3.99999C3.26666 2.66675 2.66666 3.26675 2.66666 4.00008V7.45342C2.66666 8.64008 4.10666 9.24008 4.94666 8.40008L8.39999 4.94675C9.22666 4.10675 8.63999 2.66675 7.45332 2.66675ZM24.5467 29.3334H28C28.7333 29.3334 29.3333 28.7334 29.3333 28.0001V24.5467C29.3333 23.3601 27.8933 22.7601 27.0533 23.6001L23.6 27.0534C22.7733 27.8934 23.36 29.3334 24.5467 29.3334Z" stroke="#F27219" stroke-width="2" stroke-linecap="round" stroke-linejoin="round"/>
</svg>
