<svg width="25" height="25" viewBox="0 0 25 25" fill="none" xmlns="http://www.w3.org/2000/svg">
<path d="M18.9 24.2475C16.6675 24.2455 14.4697 23.695 12.501 22.6446L11.8935 22.3079C7.69601 20.0562 4.25478 16.6227 1.998 12.4347L1.6605 11.8286C0.580258 9.85317 0.00962634 7.6405 8.39371e-07 5.39014V4.48769C-0.000566161 3.76971 0.286147 3.0812 0.796501 2.57501L3.078 0.298664C3.29958 0.0758776 3.61234 -0.0315021 3.9244 0.00807138C4.23645 0.0476449 4.51235 0.229694 4.671 0.500701L7.7085 5.69994C8.01567 6.22915 7.92697 6.89841 7.4925 7.32976L4.941 9.87553C4.72911 10.0846 4.67974 10.4076 4.8195 10.6702L5.292 11.5592C6.98901 14.6955 9.57056 17.2665 12.717 18.954L13.608 19.4389C13.8713 19.5783 14.195 19.529 14.4045 19.3177L16.956 16.7719C17.3883 16.3385 18.0591 16.25 18.5895 16.5564L23.8005 19.5871C24.0721 19.7453 24.2546 20.0206 24.2942 20.3319C24.3339 20.6433 24.2263 20.9554 24.003 21.1765L21.7215 23.4528C21.2142 23.962 20.5241 24.2481 19.8045 24.2475H18.9Z" fill="#1E1E1E"/>
</svg>
