<svg width="20" height="20" viewBox="0 0 20 20" fill="none" xmlns="http://www.w3.org/2000/svg">
<g clip-path="url(#clip0_37_177)">
<path d="M19.1616 12.5396C19.1441 12.5163 19.1253 12.4945 19.1051 12.4736C18.5237 11.7466 17.4727 11.6006 16.7398 12.1507C15.6836 12.9292 13.8765 14.2392 13.2734 14.6764L10.6387 14.4698L12.2507 14.117C13.1142 13.9913 13.7332 13.2294 13.6958 12.3301C13.6956 12.3206 13.6949 12.3111 13.694 12.3018C13.6192 11.4031 12.889 10.7256 11.9958 10.7256H7.12055C6.72441 10.7256 6.3548 10.827 6.02191 11.0267C6.00855 11.0349 5.99539 11.0433 5.98246 11.0523L0.789726 14.6805C0.481796 14.8957 0.406523 15.3199 0.621679 15.6276C0.83664 15.9358 1.26113 16.0113 1.56883 15.7956L6.7398 12.1827C6.855 12.1176 6.97973 12.0856 7.12074 12.0856H11.996C12.177 12.0856 12.3153 12.2144 12.3371 12.4004C12.3387 12.5641 12.2505 12.7459 12.0477 12.7713C12.0273 12.7738 12.0069 12.7772 11.9867 12.7818L9.08422 13.4167C8.85769 13.4663 8.67199 13.6278 8.59148 13.8452C8.51098 14.0629 8.5468 14.3064 8.68672 14.4915L9.4577 15.5119C9.57492 15.6672 9.75316 15.7649 9.94726 15.7801L13.4166 16.0522C13.5772 16.0638 13.738 16.0196 13.8686 15.925C13.8923 15.9078 16.2668 14.1892 17.5513 13.2425C17.698 13.1325 17.9314 13.1742 18.05 13.3329C18.0631 13.3504 18.0772 13.3674 18.0919 13.3833C18.1833 13.5327 18.1484 13.7243 18.0035 13.8329L13.402 17.3013C13.2666 17.4027 13.1255 17.4412 12.9643 17.4199L6.25226 16.5809C6.06906 16.558 5.88492 16.6104 5.74117 16.726L3.17883 18.7897C2.88609 19.0256 2.84004 19.4539 3.07566 19.7464C3.20992 19.9133 3.40695 19.9999 3.60582 19.9999C3.7557 19.9999 3.90648 19.9507 4.03191 19.8498L6.36957 17.967L12.7898 18.7695C13.3018 18.8378 13.7952 18.7065 14.219 18.389L18.8213 14.9208C19.5716 14.358 19.7242 13.29 19.1616 12.5396Z" fill="white"/>
<path d="M13.1065 2.3584C12.7307 2.3584 12.4262 2.66293 12.4262 3.03867V7.12031C12.4262 7.49605 12.7307 7.80059 13.1065 7.80059C13.4822 7.80059 13.7868 7.49605 13.7868 7.12031V3.03867C13.7868 2.66293 13.4822 2.3584 13.1065 2.3584Z" fill="white"/>
<path d="M15.1473 4.39893H11.0657C10.6899 4.39893 10.3854 4.70346 10.3854 5.0792C10.3854 5.45494 10.6899 5.75947 11.0657 5.75947H15.1473C15.5231 5.75947 15.8276 5.45494 15.8276 5.0792C15.8276 4.70346 15.5231 4.39893 15.1473 4.39893Z" fill="white"/>
<path d="M13.1065 0C10.3056 0 8.02734 2.27848 8.02734 5.07937C8.02734 7.88027 10.3056 10.1587 13.1065 10.1587C15.9071 10.1587 18.1859 7.88031 18.1859 5.07937C18.1859 2.27844 15.9074 0 13.1065 0ZM13.1065 8.7982C11.0559 8.7982 9.38789 7.12996 9.38789 5.07937C9.38789 3.02879 11.0559 1.36055 13.1065 1.36055C15.157 1.36055 16.8253 3.02879 16.8253 5.07937C16.8253 7.12996 15.1571 8.7982 13.1065 8.7982Z" fill="white"/>
</g>
<defs>
<clipPath id="clip0_37_177">
<rect width="20" height="20" fill="white"/>
</clipPath>
</defs>
</svg>
