<svg width="91" height="100" viewBox="0 0 91 100" fill="none" xmlns="http://www.w3.org/2000/svg">
<path opacity="0.2" d="M81.9409 64.1956C79.4246 62.9096 76.8406 61.7878 74.2023 60.8363C73.5739 58.3441 72.5421 55.9945 71.1558 53.8984C68.6521 50.3038 65.3355 47.4804 61.531 45.705C65.6728 39.9821 67.8939 32.8844 67.825 25.5927C67.859 21.8404 67.2235 18.1168 65.9539 14.6294C64.3102 10.2304 61.4653 6.49006 57.8056 3.91654C54.146 1.34303 49.8491 0.0610843 45.4985 0.244865C41.1553 0.062627 36.8657 1.34096 33.2104 3.90679C29.5551 6.47262 26.7106 10.202 25.0621 14.5901C23.7831 18.0873 23.1423 21.8234 23.1758 25.5885C23.1076 32.8105 25.2826 39.8448 29.3465 45.5457C25.2629 47.3533 21.6932 50.3131 19.0032 54.1218C17.5581 56.2444 16.4877 58.642 15.8467 61.1921C13.5304 62.0601 11.2585 63.0634 9.04093 64.1977C6.39387 65.4671 4.13556 67.5375 2.5333 70.1638C0.931045 72.79 0.0519245 75.8622 0 79.0166L0 98.0306C0.0132355 98.42 0.164334 98.7887 0.421532 99.0591C0.678731 99.3296 1.022 99.4807 1.37917 99.4807C1.73635 99.4807 2.07962 99.3296 2.33681 99.0591C2.59401 98.7887 2.74511 98.42 2.75835 98.0306V79.0166C2.81506 76.4337 3.54795 73.9224 4.87047 71.7793C6.19299 69.6362 8.04992 67.9507 10.222 66.9219C11.805 66.0945 13.5036 65.3333 15.2894 64.6093C15.0536 67.2434 15.2338 69.9021 15.8221 72.4697C13.2482 73.835 11.2757 76.2587 10.3376 79.209C9.08851 82.9995 9.0159 87.1328 10.131 90.9727C10.7856 93.3837 11.8585 95.635 13.2912 97.6045C13.4036 97.7618 13.5434 97.8932 13.7028 97.991C13.8621 98.0888 14.0376 98.151 14.2192 98.1741C14.4007 98.1972 14.5847 98.1806 14.7603 98.1254C14.9359 98.0701 15.0997 97.9773 15.2422 97.8523C15.3846 97.7274 15.5029 97.5727 15.59 97.3974C15.6772 97.2221 15.7315 97.0296 15.7498 96.8312C15.7682 96.6327 15.7501 96.4323 15.6968 96.2415C15.6435 96.0508 15.5559 95.8735 15.4392 95.72C14.231 94.0523 13.3257 92.1483 12.7718 90.1102C11.8336 86.9061 11.8835 83.4548 12.914 80.2846C13.2915 79.0212 13.9334 77.8711 14.7889 76.9254C15.6445 75.9797 16.6901 75.2644 17.843 74.8361C19.0226 74.4987 20.2581 74.4664 21.4512 74.7418C22.6443 75.0172 23.7619 75.5928 24.7152 76.4227C27.1742 78.4511 28.9551 81.3041 29.7845 84.5437C30.3511 86.578 30.5545 88.7121 30.3835 90.83C30.3663 91.027 30.3848 91.2257 30.4379 91.4149C30.4911 91.604 30.5779 91.7799 30.6934 91.9324C30.8089 92.0849 30.9508 92.2111 31.111 92.3038C31.2712 92.3965 31.4466 92.4538 31.6271 92.4724C31.9899 92.5049 32.35 92.3814 32.6305 92.1283C32.911 91.8752 33.0897 91.5125 33.1286 91.1175C33.333 88.6089 33.0936 86.0808 32.4234 83.6708C31.4183 79.7959 29.275 76.3883 26.3228 73.9715C24.0827 72.1059 21.2654 71.2639 18.4667 71.6237C17.8595 68.9645 17.7685 66.1962 18.1994 63.4964C18.8895 63.2523 19.5814 63.0062 20.2942 62.7745C22.0194 62.2139 23.4677 61.7878 24.8592 61.4279C25.3428 61.3 25.8199 61.1447 26.2886 60.9625C28.5977 67.7059 40.5676 74.0108 44.1089 75.7463V98.0244C44.1221 98.4138 44.2732 98.7825 44.5304 99.0529C44.7876 99.3234 45.1309 99.4744 45.4881 99.4744C45.8452 99.4744 46.1885 99.3234 46.4457 99.0529C46.7029 98.7825 46.854 98.4138 46.8672 98.0244V75.7463C50.3972 73.9984 62.3481 67.6645 64.6875 60.9211C65.1538 61.1114 65.6164 61.2769 66.1036 61.4196C67.4894 61.7775 68.9359 62.2057 70.6535 62.7621C71.0743 62.8986 71.4762 63.0476 71.8895 63.1882C72.5487 67.2603 72.3326 71.4437 71.2582 75.4091C70.4724 75.1092 69.647 74.9507 68.8146 74.9396C66.9471 74.9157 65.1322 75.614 63.6915 76.9106C62.2508 78.2073 61.2774 80.0187 60.9438 82.0237C60.6101 84.0286 60.9378 86.0978 61.8687 87.8643C62.7996 89.6309 64.2736 90.9808 66.0296 91.6748C67.7855 92.3689 69.7099 92.3621 71.4617 91.6559C73.2136 90.9497 74.6797 89.5895 75.6002 87.8165C76.5208 86.0434 76.8363 83.9721 76.4909 81.9695C76.1455 79.9668 75.1615 78.1623 73.7132 76.8757C74.8769 72.8018 75.264 68.5112 74.8507 64.268C76.9361 65.0851 78.9266 65.9601 80.7598 66.9033C82.9349 67.9335 84.7945 69.6213 86.119 71.7673C87.4436 73.9133 88.1777 76.428 88.2348 79.0146V98.0202C88.2348 98.4191 88.38 98.8016 88.6385 99.0836C88.897 99.3656 89.2475 99.524 89.6131 99.524C89.9786 99.524 90.3291 99.3656 90.5876 99.0836C90.8461 98.8016 90.9913 98.4191 90.9913 98.0202V79.0208C90.9376 75.8647 90.0567 72.7913 88.4529 70.1642C86.849 67.537 84.5893 65.4658 81.9409 64.1956ZM45.4985 3.25458C49.008 3.10546 52.4846 4.04252 55.5268 5.95754C58.569 7.87257 61.0528 10.6875 62.6912 14.0771C62.6666 14.0771 62.6647 14.1061 62.6609 14.1288C59.4165 14.9915 56.2599 16.2084 53.2389 17.7612C51.0427 18.9397 48.7308 19.8419 46.3478 20.4503C36.8689 22.2892 31.1665 18.5886 27.9588 14.8652C29.5147 11.2647 32.0076 8.24358 35.1267 6.17883C38.2459 4.11407 41.8531 3.09704 45.4985 3.25458ZM25.9285 25.5947C25.9131 23.0173 26.2374 20.4509 26.8915 17.9743C30.7134 21.8776 36.9998 25.3237 46.8293 23.4248C49.4338 22.7826 51.9595 21.8064 54.3536 20.5165C57.3655 18.9277 60.5318 17.714 63.7927 16.8986C64.6597 19.6965 65.0909 22.6331 65.0685 25.5864C65.0685 39.9255 56.2892 51.5879 45.4985 51.5879C34.7078 51.5879 25.9285 39.9296 25.9285 25.5927V25.5947ZM24.2223 58.5092C22.7834 58.8857 21.2876 59.3263 19.5151 59.8993C19.3786 59.9427 19.2515 59.9923 19.1151 60.0358C19.651 58.5717 20.3562 57.1883 21.2137 55.9194C23.8211 52.2749 27.3173 49.5061 31.3011 47.9307C31.8899 48.574 32.5094 49.183 33.157 49.7552C32.6645 51.4912 31.8299 53.0888 30.7119 54.4359C29.5939 55.783 28.2195 56.8471 26.6849 57.5535C25.8956 57.9579 25.0721 58.2773 24.2261 58.5071L24.2223 58.5092ZM45.4985 73.1337C39.2614 70.1302 30.0669 64.2783 28.7911 59.7731C31.8992 58.0233 34.299 55.0737 35.5229 51.4989C38.5217 53.5261 41.9794 54.6 45.507 54.6C49.0347 54.6 52.4923 53.5261 55.4911 51.4989C56.7676 55.0162 59.1528 57.9209 62.2173 59.6903C60.9509 64.2039 51.7413 70.0992 45.4985 73.1337ZM66.7311 58.4947C65.9063 58.2387 65.1038 57.9036 64.333 57.4935C62.818 56.7652 61.4592 55.6995 60.3437 54.3647C59.2282 53.03 58.3806 51.4557 57.8551 49.7428C58.4542 49.2236 59.0191 48.6402 59.5765 48.0486C63.2771 49.6073 66.5128 52.2482 68.9283 55.6815C69.7589 56.9361 70.4417 58.2996 70.9606 59.74C69.3985 59.2332 68.0373 58.834 66.7311 58.4947ZM73.882 83.4722C73.882 84.5629 73.5857 85.6291 73.0305 86.5361C72.4754 87.4431 71.6863 88.1502 70.763 88.5681C69.8397 88.9859 68.8236 89.0958 67.843 88.8838C66.8625 88.6717 65.9616 88.1473 65.2542 87.3768C64.5467 86.6063 64.0644 85.6243 63.8682 84.5548C63.6721 83.4854 63.7709 82.3765 64.1521 81.3682C64.5333 80.36 65.1799 79.4977 66.0101 78.8902C66.8403 78.2828 67.8169 77.9575 68.8165 77.9555C70.1574 77.956 71.4433 78.5374 72.3917 79.5718C73.3401 80.6062 73.8734 82.0091 73.8744 83.4722H73.882Z" fill="#F9F9F9" fill-opacity="0.86"/>
</svg>
